PathFileType	4	(X/Y/Z)	C:/Users/beibeiliu/ov580/test_trc/capture2\sequence.22_training_dense_right.trc
DataRate	CameraRate	NumFrames	NumMarkers	Units	OrigDataRate	OrigDataStartFrame	OrigNumFrames
120	120	12	19	mm	120	191	380
Frame#	Time	ThumbCMC			ThumbMCP			ThumbIP			ThumbTip			IndexMCP			IndexPIP			IndexTip			MiddleMCP			MiddlePIP			MiddleTip			RingMCP			RingPIP			RingTip			PinkyMCP			PinkyPIP			PinkyTip			BackHand1			BackHand2			BackHand3	
		X0	Y0	Z0	X1	Y1	Z1	X2	Y2	Z2	X3	Y3	Z3	X4	Y4	Z4	X5	Y5	Z5	X6	Y6	Z6	X7	Y7	Z7	X8	Y8	Z8	X9	Y9	Z9	X10	Y10	Z10	X11	Y11	Z11	X12	Y12	Z12	X13	Y13	Z13	X14	Y14	Z14	X15	Y15	Z15	X16	Y16	Z16	X17	Y17	Z17	X18	Y18	Z18	
190	1.58333	162.731	58.2473	11.9384	149.648	70.3274	-15.7781	141.199	75.0555	-40.3533	129.416	70.7223	-63.9976	133.637	43.9171	-55.7879	109.792	62.3081	-49.6635	122.88	61.5269	-17.5519	117.802	28.9554	-47.8069	97.1541	51.398	-31.2606	121.962	47.985	-3.77166	102.922	21.6193	-39.7012	91.9227	41.8552	-24.0345	117.265	40.118	2.42106	104.8	-4.46481	-28.3351	84.9159	-0.330654	-44.3575	65.8494	0.870364	-58.7983	142.721	-5.19103	-3.83035	156.814	-0.0272343	27.4743	170.057	23.7029	1.49896	
191	1.59167	162.552	50.9167	9.7271	153.071	65.7047	-9.22096	147.35	72.9896	-41.613	138.967	73.5633	-59.2621	131.103	42.5938	-54.5918	112.781	63.1759	-47.8832	123.247	63.4218	-17.2354	113.325	32.5857	-48.5354	98.4605	53.4226	-33.2786	122.411	50.1209	-3.91974	103.204	19.7892	-38.4583	93.5871	45.5905	-23.7996	117.111	42.2592	0.616444	96.931	-4.45598	-30.0562	79.4565	2.48996	-44.298	65.1478	9.61431	-64.4854	142.447	-5.98233	-3.93523	151.558	-2.92692	26.4997	163.579	15.7769	1.49802	
192	1.6	164.618	46.7888	13.1275	158.253	65.345	-9.81972	151.335	66.5116	-37.1646	144.481	70.8247	-57.2733	137.665	43.4653	-52.5894	115.45	61.665	-48.0564	127.41	60.0537	-13.6237	114.708	32.6512	-47.5669	103.066	57.1664	-31.8014	123.778	51.053	-2.16126	102.146	26.7658	-39.5936	91.953	47.3475	-21.9057	119.369	41.9653	1.74821	96.1972	1.93223	-33.0032	78.6156	8.64093	-47.4058	62.6916	12.8832	-62.9322	134.807	-7.47563	-1.84801	145.178	-6.71543	24.4922	164.464	11.6915	7.68643	
193	1.60833	162.06	41.2304	19.9517	158.299	59.4847	-9.25985	155.661	67.1218	-29.9336	148.262	68.9001	-55.014	139.418	39.319	-48.9549	120.364	64.5504	-47.5148	129.914	62.0497	-13.1216	116.907	35.7464	-46.1661	105.319	59.0164	-34.0291	122.698	51.8963	-2.04302	101.98	23.8417	-36.7658	97.0426	51.9146	-21.3109	118.185	41.5844	4.47073	89.6283	2.30532	-28.3919	75.4375	14.4017	-48.4211	61.5198	22.4261	-65.935	127.194	-11.8014	-3.19293	136.289	-13.2585	30.5169	159.34	6.59461	10.6434	
194	1.61667	162.691	38.9029	21.416	159.762	57.2628	-4.21268	157.634	63.9863	-30.2865	149.779	66.337	-50.0892	135.332	39.1674	-49.0656	121.986	65.6083	-44.0702	124.883	59.8149	-11.8864	113.714	35.8383	-44.9771	103.286	59.7569	-28.3298	121.109	50.3331	2.28856	99.827	28.1682	-35.6652	93.4015	52.4191	-19.7289	111.188	42.6474	7.24426	90.1511	8.77037	-32.3246	75.5907	17.7877	-43.662	67.74	28.232	-63.8016	123.054	-9.20822	-1.3386	131.388	-14.3447	30.0487	155.666	3.24992	9.5575	
195	1.625	158.204	33.0348	22.2545	156.629	51.6088	-1.8308	155.986	60.1092	-24.0467	147.807	62.0201	-47.0098	135.036	38.848	-46.0496	124.141	66.3332	-42.147	131.283	61.8141	-7.60867	116.356	37.1812	-42.7057	106.843	62.4941	-26.3337	117.375	49.8283	4.94512	96.0237	30.7767	-33.3877	93.0653	54.8804	-18.3673	111.583	43.4076	9.1392	85.0784	10.4754	-30.2574	72.7162	21.8414	-42.4875	67.2777	34.4817	-65.9358	120.293	-8.13572	4.03442	123.991	-13.511	32.6688	148.774	0.639396	14.413	
196	1.63333	155.962	30.788	27.1933	155.817	48.6932	1.95487	155.267	57.0829	-20.7343	151.845	62.9093	-43.972	134.792	38.5731	-44.407	124.36	65.3479	-39.1139	129.303	63.1637	-5.46006	112.807	38.5223	-39.5994	105.872	63.8332	-22.6548	120.601	47.0095	8.8684	97.7048	32.3403	-32.2131	92.1805	57.7709	-14.0302	108.347	43.5542	12.7667	85.0187	14.1762	-26.5781	71.4321	29.4249	-44.191	62.2869	36.2389	-61.1585	110.248	-11.9805	3.38851	117.019	-14.7028	37.9075	142.89	-1.57322	15.9638	
197	1.64167	153.215	28.1842	31.7888	156.224	46.8294	3.86729	157.005	54.8449	-19.9603	150.656	60.5725	-38.0192	133.505	36.9788	-39.198	123.274	66.6997	-33.5463	124.039	61.4282	-3.38281	114.38	35.6975	-35.9079	106.759	64.5793	-23.566	118.412	45.8988	11.435	97.0977	34.5745	-28.9659	92.7745	59.4423	-9.41642	109.233	46.4977	14.1429	77.7817	14.8979	-22.9579	71.211	33.9417	-41.3869	66.2429	46.897	-57.7259	107.038	-8.35847	5.45892	115.569	-13.8104	39.8375	142.642	-3.76401	17.6203	
198	1.65	149.777	25.0021	33.6723	153.31	43.5753	12.6143	155.753	52.5379	-15.3803	153.271	60.4211	-39.486	134.12	35.5162	-36.1701	122.003	66.4293	-30.9896	128.328	60.9013	2.68141	107.42	37.9276	-33.1765	108.869	66.7216	-17.6071	118.08	48.815	13.8054	92.1143	35.4556	-25.258	93.8375	62.1426	-6.82989	107.665	47.7968	15.7305	76.2167	19.5439	-22.7965	68.4295	38.6259	-38.2401	63.1686	51.2559	-53.7142	102.889	-8.16421	9.71371	110.537	-15.1523	36.0562	134.58	-5.08656	21.2133	
199	1.65833	147.252	23.7425	32.0856	154.358	43.8472	9.35718	153.01	51.3125	-15.1424	150.416	59.1915	-34.6996	128.356	39.6889	-34.8898	125.764	68.1199	-30.45	124.676	61.719	2.87378	107.665	41.2161	-31.8456	107.386	67.5313	-16.7106	114.37	46.6458	16.1775	90.6048	38.5555	-23.6351	95.4233	63.7341	-6.06565	105.468	44.3384	20.5136	72.981	21.4748	-18.8947	67.8584	41.8472	-36.8365	63.9649	57.7921	-51.9068	96.8021	-7.22971	7.893	105.117	-14.6424	40.7636	135.993	-5.79717	21.3111	
200	1.66667	145.623	23.3972	36.757	151.647	43.0256	17.4895	153.403	52.3014	-11.6436	151.974	60.3965	-31.4164	130.676	38.8088	-31.5858	124.018	69.268	-25.2508	125.238	60.6511	6.05522	105.358	43.8875	-28.4262	104.584	68.9139	-12.043	113.114	48.4445	19.0849	88.3361	41.9406	-21.8953	91.7862	65.0133	-0.635139	103.333	42.5913	23.7146	69.4434	24.879	-17.8385	68.0999	46.1184	-34.242	62.3664	62.8253	-50.0515	98.7844	-6.26566	9.98619	98.9888	-14.6794	44.0753	128.915	-5.88794	22.4613	
201	1.675	146.79	22.2556	40.0832	152.521	42.5695	15.1578	154.414	51.4459	-6.33923	151.415	60.4927	-29.3661	129.36	39.6899	-29.4788	122.823	70.8122	-22.1373	126.251	61.2734	8.64964	103.493	45.1284	-25.5294	109.269	71.9457	-9.45041	115.962	47.4624	21.7373	86.2272	43.3202	-18.1957	89.7234	68.0352	0.945166	105.825	46.3975	24.134	69.0935	29.0286	-14.6214	64.4152	47.2056	-29.6102	61.5021	68.2183	-46.2463	89.8851	-3.13566	11.9976	98.3647	-12.649	41.2176	128.63	-3.5228	25.975	
